<svg width="72" height="72" viewBox="0 0 72 72" fill="none" xmlns="http://www.w3.org/2000/svg">
<rect x="0.25" y="0.25" width="71.5" height="70.6219" rx="17.75" fill="#D3BFFF" stroke="#7443DE" stroke-width="0.5"/>
<path d="M47.25 25.875H40.5V24.75C40.499 23.8552 40.1431 22.9973 39.5104 22.3646C38.8777 21.7319 38.0198 21.376 37.125 21.375H34.875C33.9802 21.376 33.1223 21.7319 32.4896 22.3646C31.8569 22.9973 31.501 23.8552 31.5 24.75V25.875H24.75C23.8552 25.876 22.9973 26.2319 22.3646 26.8646C21.7319 27.4973 21.376 28.3552 21.375 29.25V34.875H50.625V29.25C50.624 28.3552 50.2681 27.4973 49.6354 26.8646C49.0027 26.2319 48.1448 25.876 47.25 25.875ZM33.75 24.75C33.7504 24.4518 33.869 24.1658 34.0799 23.9549C34.2908 23.744 34.5767 23.6254 34.875 23.625H37.125C37.4233 23.6253 37.7093 23.7439 37.9202 23.9548C38.1311 24.1657 38.2497 24.4517 38.25 24.75V25.875H33.75V24.75ZM37.125 37.125V38.25H34.875V37.125H37.125ZM39.375 37.125H50.625V43.875C50.624 44.7698 50.2681 45.6277 49.6354 46.2604C49.0027 46.8931 48.1448 47.249 47.25 47.25H24.75C23.8552 47.249 22.9973 46.8931 22.3646 46.2604C21.7319 45.6277 21.376 44.7698 21.375 43.875V37.125H32.625V39.375C32.625 39.6734 32.7435 39.9595 32.9545 40.1705C33.1655 40.3815 33.4516 40.5 33.75 40.5H38.25C38.5484 40.5 38.8345 40.3815 39.0455 40.1705C39.2565 39.9595 39.375 39.6734 39.375 39.375V37.125Z" fill="#7443DE"/>
</svg>
