<svg width="72" height="72" viewBox="0 0 72 72" fill="none" xmlns="http://www.w3.org/2000/svg">
<rect x="0.25" y="0.25" width="71.5" height="70.6219" rx="17.75" fill="#BEFFB9" stroke="#50B748" stroke-width="0.5"/>
<path d="M51.55 24.7503H39.9779C40.4478 24.5203 40.9052 24.2216 41.305 23.8219C43.0921 22.0348 42.9518 19.1051 42.9452 18.9813C42.9249 18.6166 42.6337 18.3255 42.2691 18.3052C42.1431 18.2978 39.2162 18.1579 37.4284 19.9453C37.0289 20.3448 36.73 20.8022 36.5 21.2718C36.2701 20.8022 35.9712 20.3448 35.5717 19.9453C33.7846 18.1586 30.8549 18.2975 30.731 18.3052C30.3664 18.3255 30.0752 18.6166 30.0549 18.9813C30.0483 19.1051 29.908 22.0348 31.6951 23.8219C32.0949 24.2216 32.5523 24.5203 33.0222 24.7503H21.45C20.2675 24.7503 19.3 25.7178 19.3 26.9003V30.4836C19.3 31.6661 20.2675 32.6336 21.45 32.6336H51.55C52.7326 32.6336 53.7001 31.6661 53.7001 30.4836V26.9003C53.7001 25.7178 52.7326 24.7503 51.55 24.7503ZM38.4418 20.9587C39.3233 20.0776 40.673 19.8271 41.4898 19.7585C41.4194 20.5773 41.1668 21.933 40.2916 22.8085C39.4101 23.6896 38.0604 23.9402 37.2437 24.0088C37.314 23.1899 37.5667 21.8343 38.4418 20.9587ZM31.5082 19.7606C32.3271 19.8313 33.6827 20.0836 34.5583 20.9587C35.4394 21.8402 35.69 23.1899 35.7585 24.0067C34.9397 23.9363 33.584 23.6837 32.7085 22.8085C31.8274 21.927 31.5768 20.5773 31.5082 19.7606ZM22.1667 49.117C22.1667 51.095 23.772 52.7003 25.75 52.7003H35.7834V34.067H22.1667V49.117ZM37.2167 52.7003H47.25C49.2281 52.7003 50.8334 51.095 50.8334 49.117V34.067H37.2167V52.7003Z" fill="#50B748"/>
</svg>
