<svg width="72" height="72" viewBox="0 0 72 72" fill="none" xmlns="http://www.w3.org/2000/svg">
<rect x="0.25" y="0.25" width="71.5" height="70.6219" rx="17.75" fill="#FFE7E7" stroke="#FF6E6E" stroke-width="0.5"/>
<g clip-path="url(#clip0_1567_5107)">
<path d="M50.8271 38.0664C50.2863 37.3199 49.9951 36.4216 49.9951 35.4998C49.9951 34.5779 50.2863 33.6796 50.8271 32.9331L51.9355 31.4019C52.071 31.2149 52.1602 30.9984 52.1956 30.7702C52.2311 30.542 52.2119 30.3087 52.1396 30.0894C52.0666 29.8723 51.9443 29.6752 51.7824 29.5133C51.6205 29.3513 51.4233 29.2291 51.2063 29.156L49.4125 28.5727C48.5338 28.2892 47.7679 27.7339 47.2253 26.9869C46.6827 26.2399 46.3916 25.3397 46.3938 24.4164V22.5206C46.3936 22.2904 46.339 22.0636 46.2343 21.8586C46.1296 21.6536 45.9779 21.4762 45.7916 21.3411C45.6053 21.206 45.3896 21.1169 45.1622 21.0811C44.9348 21.0453 44.7022 21.0638 44.4834 21.1352L42.675 21.7185C41.7971 22.0026 40.8519 22.0018 39.9744 21.7164C39.097 21.4309 38.3323 20.8752 37.7896 20.1289L36.6813 18.5977C36.5398 18.4202 36.3601 18.2769 36.1556 18.1784C35.9511 18.08 35.727 18.0288 35.5 18.0288C35.2731 18.0288 35.049 18.08 34.8445 18.1784C34.64 18.2769 34.4603 18.4202 34.3188 18.5977L33.2105 20.1289C32.6678 20.8752 31.9031 21.4309 31.0256 21.7164C30.1482 22.0018 29.203 22.0026 28.325 21.7185L26.5167 21.1352C26.2979 21.0638 26.0653 21.0453 25.8379 21.0811C25.6105 21.1169 25.3948 21.206 25.2085 21.3411C25.0221 21.4762 24.8704 21.6536 24.7658 21.8586C24.6611 22.0636 24.6065 22.2904 24.6063 22.5206V24.4164C24.6085 25.3397 24.3173 26.2399 23.7748 26.9869C23.2322 27.7339 22.4663 28.2892 21.5875 28.5727L19.7938 29.156C19.5768 29.2291 19.3796 29.3513 19.2177 29.5133C19.0558 29.6752 18.9335 29.8723 18.8605 30.0894C18.7881 30.3087 18.7689 30.542 18.8044 30.7702C18.8399 30.9984 18.9291 31.2149 19.0646 31.4019L20.173 32.9331C20.7138 33.6796 21.005 34.5779 21.005 35.4998C21.005 36.4216 20.7138 37.3199 20.173 38.0664L19.0646 39.5977C18.9291 39.7847 18.8399 40.0012 18.8044 40.2294C18.7689 40.4575 18.7881 40.6909 18.8605 40.9102C18.9335 41.1272 19.0558 41.3244 19.2177 41.4863C19.3796 41.6482 19.5768 41.7705 19.7938 41.8435L21.5875 42.4269C22.4663 42.7103 23.2322 43.2656 23.7748 44.0127C24.3173 44.7597 24.6085 45.6598 24.6063 46.5831V48.4789C24.6065 48.7091 24.6611 48.936 24.7658 49.141C24.8704 49.346 25.0221 49.5233 25.2085 49.6584C25.3948 49.7936 25.6105 49.8827 25.8379 49.9185C26.0653 49.9543 26.2979 49.9357 26.5167 49.8644L28.3105 49.281C29.1902 48.9922 30.1391 48.9905 31.0199 49.2762C31.9007 49.5619 32.6678 50.1203 33.2105 50.8706L34.3188 52.4019C34.455 52.5872 34.6328 52.738 34.838 52.8419C35.0432 52.9458 35.27 52.9999 35.5 52.9999C35.7301 52.9999 35.9568 52.9458 36.162 52.8419C36.3673 52.738 36.5451 52.5872 36.6813 52.4019L37.7896 50.8706C38.3332 50.1214 39.1004 49.5638 39.9809 49.2782C40.8614 48.9926 41.8097 48.9935 42.6896 49.281L44.4834 49.8644C44.7022 49.9357 44.9348 49.9543 45.1622 49.9185C45.3896 49.8827 45.6053 49.7936 45.7916 49.6584C45.9779 49.5233 46.1296 49.346 46.2343 49.141C46.339 48.936 46.3936 48.7091 46.3938 48.4789V46.5831C46.3916 45.6598 46.6827 44.7597 47.2253 44.0127C47.7679 43.2656 48.5338 42.7103 49.4125 42.4269L51.2063 41.8435C51.4233 41.7705 51.6205 41.6482 51.7824 41.4863C51.9443 41.3244 52.0666 41.1272 52.1396 40.9102C52.2119 40.6909 52.2311 40.4575 52.1956 40.2294C52.1602 40.0012 52.071 39.7847 51.9355 39.5977L50.8271 38.0664ZM42.3688 33.6142L35.0771 40.9058C34.8036 41.1792 34.4328 41.3328 34.0461 41.3328C33.6594 41.3328 33.2885 41.1792 33.015 40.9058L28.64 36.5308C28.5008 36.3963 28.3897 36.2354 28.3132 36.0575C28.2368 35.8795 28.1966 35.6882 28.1949 35.4945C28.1932 35.3009 28.2301 35.1089 28.3034 34.9296C28.3768 34.7504 28.485 34.5876 28.622 34.4507C28.7589 34.3137 28.9217 34.2054 29.1009 34.1321C29.2802 34.0588 29.4722 34.0219 29.6658 34.0236C29.8595 34.0253 30.0508 34.0655 30.2288 34.1419C30.4067 34.2184 30.5676 34.3295 30.7021 34.4687L34.0417 37.8127L40.3023 31.5521C40.5774 31.2864 40.9458 31.1394 41.3281 31.1428C41.7105 31.1461 42.0763 31.2994 42.3467 31.5698C42.617 31.8402 42.7704 32.206 42.7737 32.5884C42.7771 32.9707 42.6301 33.3391 42.3644 33.6142H42.3688Z" fill="#FF6E6E"/>
</g>
<defs>
<clipPath id="clip0_1567_5107">
<rect width="35" height="35" fill="white" transform="translate(18 18)"/>
</clipPath>
</defs>
</svg>
